<?xml version="1.0" standalone="no"?>
<!DOCTYPE svg PUBLIC "-//W3C//DTD SVG 20010904//EN"
 "http://www.w3.org/TR/2001/REC-SVG-20010904/DTD/svg10.dtd">
<svg version="1.0" xmlns="http://www.w3.org/2000/svg"
 width="15.000000pt" height="15.000000pt" viewBox="0 0 225.000000 225.000000"
 preserveAspectRatio="xMidYMid meet">
<metadata>
Created by potrace 1.10, written by Peter Selinger 2001-2011
</metadata>
<g transform="translate(0.000000,225.000000) scale(0.100000,-0.100000)"
fill="#000000" stroke="none">
<path d="M383 2243 c-7 -2 -13 -17 -13 -31 0 -43 149 -586 164 -597 7 -5 65
-52 128 -104 l116 -95 -24 -38 c-30 -47 -30 -50 4 -66 15 -6 44 -37 65 -67 64
-93 186 -155 302 -155 116 0 238 62 302 155 21 30 50 61 66 67 33 16 33 19 3
66 l-24 38 116 95 c63 52 121 99 128 104 15 11 164 554 164 596 0 37 -37 50
-59 22 -9 -11 -47 -141 -86 -288 l-70 -268 -118 -99 c-65 -54 -122 -98 -127
-98 -4 0 -13 21 -19 46 -25 100 -100 209 -161 234 -26 11 -30 18 -30 50 0 48
-23 75 -51 60 -13 -8 -19 -21 -19 -45 0 -24 -5 -35 -15 -35 -10 0 -15 11 -15
35 0 24 -6 37 -19 45 -28 15 -51 -12 -51 -60 0 -32 -4 -39 -30 -50 -61 -25
-136 -134 -161 -234 -6 -25 -15 -46 -19 -46 -5 0 -62 44 -127 98 l-118 99 -69
264 c-38 145 -75 274 -83 287 -13 22 -26 25 -50 15z"/>
<path d="M157 1704 c-18 -18 1 -61 96 -222 l102 -174 144 -59 c79 -32 146 -60
148 -63 6 -6 -27 -137 -36 -148 -3 -3 -70 -14 -149 -24 l-143 -17 -127 -110
c-133 -114 -153 -145 -112 -167 25 -13 15 -20 163 109 l108 93 120 16 c66 8
121 13 123 11 2 -2 -1 -42 -5 -89 l-9 -85 -102 -95 c-57 -52 -129 -119 -160
-150 l-57 -55 -70 -218 c-38 -121 -67 -225 -64 -233 7 -19 42 -28 58 -14 8 7
17 22 21 33 3 12 33 106 65 208 l60 186 126 118 127 117 17 -78 c31 -144 92
-268 165 -336 119 -110 318 -155 504 -112 70 16 162 64 214 112 73 68 134 192
165 336 l17 78 127 -117 126 -117 60 -187 c32 -102 62 -196 65 -208 4 -11 13
-26 21 -33 16 -14 51 -5 58 14 3 8 -26 112 -64 233 l-70 218 -57 55 c-31 31
-103 98 -160 150 l-102 95 -9 85 c-4 47 -7 87 -5 89 2 2 57 -3 123 -11 l120
-16 108 -93 c59 -51 116 -99 125 -107 12 -10 21 -11 37 -2 44 23 27 50 -108
165 l-129 110 -148 20 -147 20 -20 73 c-11 40 -17 75 -14 78 2 3 68 31 146 63
78 32 146 62 151 67 4 5 51 85 105 177 103 180 113 212 61 212 -27 0 -36 -11
-125 -166 l-96 -167 -155 -63 c-111 -45 -162 -71 -180 -92 -83 -96 -115 -126
-158 -150 -137 -75 -317 -75 -454 0 -43 24 -75 54 -158 150 -18 21 -69 47
-180 92 l-155 63 -96 167 c-79 137 -100 167 -120 169 -14 2 -28 0 -32 -4z"/>
</g>
</svg>
